<svg width="1761" height="398" viewBox="0 0 1761 398" fill="none" xmlns="http://www.w3.org/2000/svg">
<path d="M56.6895 0.130039H158.999L317.578 264.429L354.524 0.130039H456.833L401.131 398H298.822L140.242 133.701L103.297 398H0.987668L56.6895 0.130039ZM481.664 109.26L497.011 0.130039H599.32L595.91 26.8442L481.664 109.26ZM478.254 134.269L591.931 51.8531L543.618 398H441.309L478.254 134.269ZM611.953 0.130039H981.404L925.134 79.7041H836.466L792.132 398H689.822L734.156 79.7041H668.224L611.953 0.130039ZM993.549 0.130039H1225.45C1261.83 0.130039 1289.11 8.84529 1307.3 26.2758C1325.86 43.3274 1335.15 67.389 1335.15 98.4608C1335.15 122.333 1330.98 143.932 1322.64 163.257C1314.31 182.203 1302.75 198.497 1287.97 212.138C1273.19 225.779 1255.76 236.2 1235.68 243.399C1215.6 250.599 1193.81 254.198 1170.32 254.198H1060.05L1040.16 398H937.847L993.549 0.130039ZM1071.42 174.624H1177.14C1194.19 174.624 1206.88 169.698 1215.22 159.846C1223.56 149.994 1228.67 138.627 1230.57 125.743C1231.32 120.817 1231.51 115.702 1231.13 110.397C1230.76 105.092 1229.24 100.166 1226.59 95.6188C1224.31 91.0718 1220.71 87.2825 1215.79 84.2511C1211.24 81.2197 1204.8 79.7041 1196.46 79.7041H1084.49L1071.42 174.624ZM1230.57 268.408L1317.53 398H1198.74L1112.91 268.408H1230.57ZM1350.05 102.439C1352.32 86.9036 1356.68 72.8834 1363.12 60.3789C1369.94 47.8744 1378.47 37.2646 1388.7 28.5493C1398.93 19.4552 1410.68 12.4451 1423.94 7.51906C1437.2 2.59305 1451.41 0.130039 1466.57 0.130039H1669.48C1685.02 0.130039 1698.66 2.59305 1710.41 7.51906C1722.15 12.4451 1731.82 19.4552 1739.4 28.5493C1747.35 37.2646 1752.85 47.8744 1755.88 60.3789C1759.29 72.8834 1759.86 86.9036 1757.58 102.439L1730.3 295.691C1728.03 310.848 1723.48 324.868 1716.66 337.751C1710.22 350.256 1701.88 361.055 1691.65 370.149C1681.42 378.864 1669.67 385.685 1656.41 390.611C1643.53 395.537 1629.32 398 1613.78 398H1410.87C1395.71 398 1382.07 395.537 1369.94 390.611C1358.2 385.685 1348.35 378.864 1340.39 370.149C1332.81 361.055 1327.32 350.256 1323.91 337.751C1320.87 324.868 1320.49 310.848 1322.77 295.691L1350.05 102.439ZM1430.76 257.04C1428.11 275.608 1430.76 290.575 1438.72 301.943C1447.06 312.932 1459.56 318.426 1476.23 318.426H1569.45C1586.12 318.426 1600.33 312.932 1612.08 301.943C1623.82 290.575 1631.02 275.608 1633.68 257.04L1649.59 141.09C1652.24 122.522 1649.4 107.744 1641.06 96.7556C1632.73 85.3879 1620.22 79.7041 1603.55 79.7041H1510.34C1493.66 79.7041 1479.45 85.3879 1467.71 96.7556C1456.34 107.744 1449.33 122.522 1446.68 141.09L1430.76 257.04Z" fill="url(#paint0_radial_1_5)"/>
<defs>
<radialGradient id="paint0_radial_1_5" cx="0" cy="0" r="1" gradientUnits="userSpaceOnUse" gradientTransform="translate(924.621 302.535) rotate(69.2089) scale(479.882 928.911)">
<stop stop-color="#7D8000"/>
<stop offset="1" stop-color="#E0E600"/>
</radialGradient>
</defs>
</svg>
