<svg width="571" height="646" viewBox="0 0 571 646" fill="none" xmlns="http://www.w3.org/2000/svg">
<path d="M76.585 52.67C86.0817 52.67 94.0983 53.41 100.635 54.89C107.172 56.2467 112.413 58.2817 116.36 60.995C120.43 63.585 123.328 66.8533 125.055 70.8C126.782 74.7467 127.645 79.2483 127.645 84.305C127.645 89.855 126.782 95.405 125.055 100.955C123.452 106.382 120.985 111.253 117.655 115.57C114.448 119.887 110.44 123.402 105.63 126.115C100.943 128.705 95.5167 130 89.35 130H0.55L18.865 104.1H79.915C84.6017 104.1 87.9933 102.743 90.09 100.03C92.31 97.3167 93.6667 94.2333 94.16 90.78C94.7767 86.4633 93.235 83.38 89.535 81.53C85.835 79.5567 80.285 78.57 72.885 78.57H55.68C41.99 78.57 32 75.8567 25.71 70.43C19.42 64.88 16.275 57.0483 16.275 46.935C16.275 41.6317 17.0767 36.2667 18.68 30.84C20.2833 25.29 22.6267 20.295 25.71 15.855C28.7933 11.2917 32.6167 7.59166 37.18 4.75499C41.7433 1.91832 46.985 0.499991 52.905 0.499991H136.525L118.21 26.4H67.52C65.1767 26.4 62.9567 26.77 60.86 27.51C58.8867 28.25 57.0983 29.2983 55.495 30.655C54.015 31.8883 52.7817 33.3683 51.795 35.095C50.8083 36.6983 50.1917 38.3633 49.945 40.09C49.3283 44.53 50.87 47.7367 54.57 49.71C58.27 51.6833 63.82 52.67 71.22 52.67H76.585ZM144.447 36.02L149.442 0.499991H182.742L181.632 9.19499L144.447 36.02ZM143.337 44.16L180.337 17.335L164.612 130H131.312L143.337 44.16ZM196.104 0.499991H229.404L281.019 86.525L293.044 0.499991H326.344L308.214 130H274.914L223.299 43.975L211.274 130H177.974L196.104 0.499991ZM351.446 130C346.513 130 342.073 129.198 338.126 127.595C334.303 125.992 331.096 123.772 328.506 120.935C326.039 117.975 324.251 114.46 323.141 110.39C322.154 106.197 322.031 101.633 322.771 96.7L331.651 33.8C332.391 28.7433 333.809 24.18 335.906 20.11C338.126 16.04 340.901 12.5867 344.231 9.74999C347.561 6.78999 351.384 4.50833 355.701 2.90499C360.018 1.30166 364.643 0.499991 369.576 0.499991H442.651L424.336 26.4H383.821C378.394 26.4 373.769 28.25 369.946 31.95C366.246 35.5267 363.964 40.3367 363.101 46.38L357.921 84.12C357.058 90.1633 357.921 95.035 360.511 98.735C363.224 102.312 367.294 104.1 372.721 104.1H416.011L434.326 130H351.446ZM459.432 0.499991H561.182L557.667 26.4H489.032L485.517 52.3H548.417L514.562 78.2H481.817L478.302 104.1H548.417L544.902 130H441.302L459.432 0.499991ZM70.665 224.67C77.5717 224.67 82.9983 223.498 86.945 221.155C91.015 218.812 93.42 214.927 94.16 209.5C94.53 206.663 93.4817 204.135 91.015 201.915C88.5483 199.572 84.9717 198.4 80.285 198.4H30.15L18.865 172.5H95.455C102.608 172.5 108.343 173.672 112.66 176.015C117.1 178.358 120.43 181.38 122.65 185.08C124.993 188.78 126.412 192.912 126.905 197.475C127.398 202.038 127.337 206.54 126.72 210.98C124.993 223.683 119.998 233.488 111.735 240.395C103.595 247.178 93.05 250.57 80.1 250.57H64.005C57.2217 250.57 51.8567 251.557 47.91 253.53C43.9633 255.38 41.6817 258.463 41.065 262.78L39.03 276.1H106.74L118.025 302H2.955L7.765 267.035C8.875 259.265 10.7867 252.728 13.5 247.425C16.2133 241.998 19.605 237.62 23.675 234.29C27.8683 230.837 32.6783 228.37 38.105 226.89C43.5317 225.41 49.5133 224.67 56.05 224.67H70.665ZM133.348 205.8C134.088 200.743 135.507 196.18 137.603 192.11C139.823 188.04 142.598 184.587 145.928 181.75C149.258 178.79 153.082 176.508 157.398 174.905C161.715 173.302 166.34 172.5 171.273 172.5H216.968C222.025 172.5 226.465 173.302 230.288 174.905C234.112 176.508 237.257 178.79 239.723 181.75C242.313 184.587 244.102 188.04 245.088 192.11C246.198 196.18 246.383 200.743 245.643 205.8L236.763 268.7C236.023 273.633 234.543 278.197 232.323 282.39C230.227 286.46 227.513 289.975 224.183 292.935C220.853 295.772 217.03 297.992 212.713 299.595C208.52 301.198 203.895 302 198.838 302H153.143C148.21 302 143.77 301.198 139.823 299.595C136 297.992 132.793 295.772 130.203 292.935C127.737 289.975 125.948 286.46 124.838 282.39C123.852 278.197 123.728 273.633 124.468 268.7L133.348 205.8ZM159.618 256.12C158.755 262.163 159.618 267.035 162.208 270.735C164.922 274.312 168.992 276.1 174.418 276.1H184.408C189.835 276.1 194.46 274.312 198.283 270.735C202.107 267.035 204.45 262.163 205.313 256.12L210.493 218.38C211.357 212.337 210.432 207.527 207.718 203.95C205.005 200.25 200.935 198.4 195.508 198.4H185.518C180.092 198.4 175.467 200.25 171.643 203.95C167.943 207.527 165.662 212.337 164.798 218.38L159.618 256.12ZM150.368 190.26L173.863 179.345L223.258 284.98L199.948 295.895L150.368 190.26ZM251.372 205.8C252.112 200.743 253.531 196.18 255.627 192.11C257.847 188.04 260.622 184.587 263.952 181.75C267.282 178.79 271.106 176.508 275.422 174.905C279.739 173.302 284.364 172.5 289.297 172.5H334.992C340.049 172.5 344.489 173.302 348.312 174.905C352.136 176.508 355.281 178.79 357.747 181.75C360.337 184.587 362.126 188.04 363.112 192.11C364.222 196.18 364.407 200.743 363.667 205.8L354.787 268.7C354.047 273.633 352.567 278.197 350.347 282.39C348.251 286.46 345.537 289.975 342.207 292.935C338.877 295.772 335.054 297.992 330.737 299.595C326.544 301.198 321.919 302 316.862 302H271.167C266.234 302 261.794 301.198 257.847 299.595C254.024 297.992 250.817 295.772 248.227 292.935C245.761 289.975 243.972 286.46 242.862 282.39C241.876 278.197 241.752 273.633 242.492 268.7L251.372 205.8ZM277.642 256.12C276.779 262.163 277.642 267.035 280.232 270.735C282.946 274.312 287.016 276.1 292.442 276.1H302.432C307.859 276.1 312.484 274.312 316.307 270.735C320.131 267.035 322.474 262.163 323.337 256.12L328.517 218.38C329.381 212.337 328.456 207.527 325.742 203.95C323.029 200.25 318.959 198.4 313.532 198.4H303.542C298.116 198.4 293.491 200.25 289.667 203.95C285.967 207.527 283.686 212.337 282.822 218.38L277.642 256.12ZM268.392 190.26L291.887 179.345L341.282 284.98L317.972 295.895L268.392 190.26ZM425.822 224.67C432.728 224.67 438.155 223.498 442.102 221.155C446.172 218.812 448.577 214.927 449.317 209.5C449.687 206.663 448.638 204.135 446.172 201.915C443.705 199.572 440.128 198.4 435.442 198.4H385.307L374.022 172.5H450.612C457.765 172.5 463.5 173.672 467.817 176.015C472.257 178.358 475.587 181.38 477.807 185.08C480.15 188.78 481.568 192.912 482.062 197.475C482.555 202.038 482.493 206.54 481.877 210.98C480.15 223.683 475.155 233.488 466.892 240.395C458.752 247.178 448.207 250.57 435.257 250.57H419.162C412.378 250.57 407.013 251.557 403.067 253.53C399.12 255.38 396.838 258.463 396.222 262.78L394.187 276.1H461.897L473.182 302H358.112L362.922 267.035C364.032 259.265 365.943 252.728 368.657 247.425C371.37 241.998 374.762 237.62 378.832 234.29C383.025 230.837 387.835 228.37 393.262 226.89C398.688 225.41 404.67 224.67 411.207 224.67H425.822ZM22.565 344.5H100.08C113.893 344.5 123.822 348.447 129.865 356.34C136.032 364.11 138.128 375.025 136.155 389.085C135.045 396.485 132.887 403.145 129.68 409.065C126.473 414.862 122.403 419.795 117.47 423.865C112.66 427.935 107.11 431.08 100.82 433.3C94.53 435.397 87.7467 436.445 80.47 436.445H42.915L37.735 474H4.435L22.565 344.5ZM46.615 410.545H83.615C86.575 410.545 89.165 409.99 91.385 408.88C93.605 407.647 95.5167 406.105 97.12 404.255C98.7233 402.282 99.9567 400.062 100.82 397.595C101.807 395.128 102.485 392.538 102.855 389.825C103.102 387.728 103.163 385.57 103.04 383.35C103.04 381.13 102.608 379.033 101.745 377.06C101.005 375.087 99.7717 373.483 98.045 372.25C96.4417 371.017 94.2217 370.4 91.385 370.4H52.165L46.615 410.545ZM144.744 344.5H220.224C232.064 344.5 240.944 347.337 246.864 353.01C252.908 358.56 255.93 366.392 255.93 376.505C255.93 384.275 254.573 391.305 251.859 397.595C249.146 403.762 245.384 409.065 240.574 413.505C235.764 417.945 230.091 421.337 223.554 423.68C217.018 426.023 209.926 427.195 202.279 427.195H166.389L159.914 474H126.614L144.744 344.5ZM170.089 401.295H204.499C210.049 401.295 214.181 399.692 216.894 396.485C219.608 393.278 221.273 389.578 221.889 385.385C222.136 383.782 222.198 382.117 222.074 380.39C221.951 378.663 221.458 377.06 220.594 375.58C219.854 374.1 218.683 372.867 217.079 371.88C215.599 370.893 213.503 370.4 210.789 370.4H174.344L170.089 401.295ZM221.889 431.82L250.194 474H211.529L183.594 431.82H221.889ZM260.78 377.8C261.52 372.743 262.938 368.18 265.035 364.11C267.255 360.04 270.03 356.587 273.36 353.75C276.69 350.79 280.513 348.508 284.83 346.905C289.147 345.302 293.772 344.5 298.705 344.5H364.75C369.807 344.5 374.247 345.302 378.07 346.905C381.893 348.508 385.038 350.79 387.505 353.75C390.095 356.587 391.883 360.04 392.87 364.11C393.98 368.18 394.165 372.743 393.425 377.8L384.545 440.7C383.805 445.633 382.325 450.197 380.105 454.39C378.008 458.46 375.295 461.975 371.965 464.935C368.635 467.772 364.812 469.992 360.495 471.595C356.302 473.198 351.677 474 346.62 474H280.575C275.642 474 271.202 473.198 267.255 471.595C263.432 469.992 260.225 467.772 257.635 464.935C255.168 461.975 253.38 458.46 252.27 454.39C251.283 450.197 251.16 445.633 251.9 440.7L260.78 377.8ZM287.05 428.12C286.187 434.163 287.05 439.035 289.64 442.735C292.353 446.312 296.423 448.1 301.85 448.1H332.19C337.617 448.1 342.242 446.312 346.065 442.735C349.888 439.035 352.232 434.163 353.095 428.12L358.275 390.38C359.138 384.337 358.213 379.527 355.5 375.95C352.787 372.25 348.717 370.4 343.29 370.4H312.95C307.523 370.4 302.898 372.25 299.075 375.95C295.375 379.527 293.093 384.337 292.23 390.38L287.05 428.12ZM406.989 344.5H504.669C509.726 344.5 514.166 345.302 517.989 346.905C521.813 348.508 524.958 350.79 527.424 353.75C530.014 356.587 531.803 360.04 532.789 364.11C533.899 368.18 534.084 372.743 533.344 377.8L524.464 440.7C523.724 445.633 522.244 450.135 520.024 454.205C517.928 458.152 515.214 461.543 511.884 464.38C508.554 467.217 504.731 469.498 500.414 471.225C496.221 472.828 491.596 473.753 486.539 474H388.859L406.989 344.5ZM425.859 448.1H472.109C477.536 448.1 482.161 446.312 485.984 442.735C489.808 439.035 492.151 434.163 493.014 428.12L498.194 390.38C499.058 384.337 498.133 379.527 495.419 375.95C492.706 372.25 488.636 370.4 483.209 370.4H436.589L425.859 448.1ZM126.72 612.7C125.98 617.633 124.5 622.197 122.28 626.39C120.183 630.46 117.47 633.975 114.14 636.935C110.81 639.772 106.987 641.992 102.67 643.595C98.4767 645.198 93.8517 646 88.795 646H36.44C31.5067 646 27.0667 645.198 23.12 643.595C19.2967 641.992 16.09 639.772 13.5 636.935C11.0333 633.975 9.245 630.46 8.135 626.39C7.14833 622.197 7.025 617.633 7.765 612.7L21.27 516.5H54.57L42.915 600.12C42.0517 606.163 42.915 611.035 45.505 614.735C48.2183 618.312 52.2883 620.1 57.715 620.1H74.365C79.7917 620.1 84.4167 618.312 88.24 614.735C92.0633 611.035 94.4067 606.163 95.27 600.12L106.925 516.5H140.225L126.72 612.7ZM162.912 646C157.979 646 153.539 645.198 149.592 643.595C145.769 641.992 142.562 639.772 139.972 636.935C137.505 633.975 135.717 630.46 134.607 626.39C133.62 622.197 133.497 617.633 134.237 612.7L143.117 549.8C143.857 544.743 145.275 540.18 147.372 536.11C149.592 532.04 152.367 528.587 155.697 525.75C159.027 522.79 162.85 520.508 167.167 518.905C171.484 517.302 176.109 516.5 181.042 516.5H254.117L235.802 542.4H195.287C189.86 542.4 185.235 544.25 181.412 547.95C177.712 551.527 175.43 556.337 174.567 562.38L169.387 600.12C168.524 606.163 169.387 611.035 171.977 614.735C174.69 618.312 178.76 620.1 184.187 620.1H227.477L245.792 646H162.912ZM265.904 552.02L270.899 516.5H304.199L303.089 525.195L265.904 552.02ZM264.794 560.16L301.794 533.335L286.069 646H252.769L264.794 560.16ZM317.561 516.5H350.861L402.476 602.525L414.501 516.5H447.801L429.671 646H396.371L344.756 559.975L332.731 646H299.431L317.561 516.5ZM566.883 612.7C566.143 617.633 564.663 622.197 562.443 626.39C560.346 630.46 557.633 633.975 554.303 636.935C550.973 639.772 547.149 641.992 542.833 643.595C538.639 645.198 534.014 646 528.958 646H472.903C467.969 646 463.529 645.198 459.583 643.595C455.759 641.992 452.553 639.772 449.963 636.935C447.496 633.975 445.708 630.46 444.598 626.39C443.611 622.197 443.488 617.633 444.228 612.7L453.108 549.8C453.848 544.743 455.266 540.18 457.363 536.11C459.583 532.04 462.358 528.587 465.688 525.75C469.018 522.79 472.841 520.508 477.158 518.905C481.474 517.302 486.099 516.5 491.033 516.5H564.108L545.793 542.4H505.278C499.851 542.4 495.226 544.25 491.403 547.95C487.703 551.527 485.421 556.337 484.558 562.38L479.378 600.12C478.514 606.163 479.378 611.035 481.968 614.735C484.681 618.312 488.751 620.1 494.178 620.1H532.473L536.728 591.055H503.798L492.513 565.155H540.243C545.299 565.155 549.739 565.957 553.563 567.56C557.386 569.163 560.531 571.445 562.998 574.405C565.588 577.242 567.376 580.695 568.363 584.765C569.473 588.835 569.658 593.398 568.918 598.455L566.883 612.7Z" fill="#E0E600"/>
</svg>
